HIERARCHY
ROOT joint_Root
{
	OFFSET 0.0 0.0 0.0
	CHANNELS 6 Xposition Yposition Zposition Zrotation Xrotation Yrotation 
	JOINT Hips
	{
		OFFSET -17.1583 93.1646 452.98
		CHANNELS 6 Xposition Yposition Zposition Zrotation Xrotation Yrotation 
		JOINT Spine
		{
			OFFSET 15.7357 0.0 0.0
			CHANNELS 6 Xposition Yposition Zposition Zrotation Xrotation Yrotation 
			JOINT Chest
			{
				OFFSET 8.98455 -0.406207 0.0
				CHANNELS 6 Xposition Yposition Zposition Zrotation Xrotation Yrotation 
				JOINT Neck
				{
					OFFSET 16.3773 0.0 0.0
					CHANNELS 6 Xposition Yposition Zposition Zrotation Xrotation Yrotation 
					JOINT Head
					{
						OFFSET 6.45672 0.0 0.0
						CHANNELS 6 Xposition Yposition Zposition Zrotation Xrotation Yrotation 
						End Site
						{
							OFFSET 0.0 0.0 0.0
						}
					}
				}
				JOINT Shoulder_L
				{
					OFFSET 12.9942 -0.242716 4.98039
					CHANNELS 6 Xposition Yposition Zposition Zrotation Xrotation Yrotation 
					JOINT UpperArm_L
					{
						OFFSET 5.34809 0.0 0.0
						CHANNELS 6 Xposition Yposition Zposition Zrotation Xrotation Yrotation 
						JOINT LowerArm_L
						{
							OFFSET 24.3286 1.87007e-05 0.0
							CHANNELS 6 Xposition Yposition Zposition Zrotation Xrotation Yrotation 
							JOINT Hand_L
							{
								OFFSET 22.2916 0.0 0.0
								CHANNELS 6 Xposition Yposition Zposition Zrotation Xrotation Yrotation 
								End Site
								{
									OFFSET 0.0 0.0 0.0
								}
							}
						}
					}
				}
				JOINT Shoulder_R
				{
					OFFSET 12.9945 -0.242716 -4.98039
					CHANNELS 6 Xposition Yposition Zposition Zrotation Xrotation Yrotation 
					JOINT UpperArm_R
					{
						OFFSET -5.34813 0.0 0.0
						CHANNELS 6 Xposition Yposition Zposition Zrotation Xrotation Yrotation 
						JOINT LowerArm_R
						{
							OFFSET -24.3289 0.000322201 0.0
							CHANNELS 6 Xposition Yposition Zposition Zrotation Xrotation Yrotation 
							JOINT Hand_R
							{
								OFFSET -22.2915 -0.000108084 0.0
								CHANNELS 6 Xposition Yposition Zposition Zrotation Xrotation Yrotation 
								End Site
								{
									OFFSET 0.0 0.0 0.0
								}
							}
						}
					}
				}
			}
		}
		JOINT UpperLeg_L
		{
			OFFSET -2.19248 -6.46944 0.0
			CHANNELS 6 Xposition Yposition Zposition Zrotation Xrotation Yrotation 
			JOINT LowerLeg_L
			{
				OFFSET 39.0811 0.0 -1.23785e-05
				CHANNELS 6 Xposition Yposition Zposition Zrotation Xrotation Yrotation 
				JOINT Foot_L
				{
					OFFSET 40.9854 0.0 -1.26872e-05
					CHANNELS 6 Xposition Yposition Zposition Zrotation Xrotation Yrotation 
					JOINT Toes_L
					{
						OFFSET 11.7543 0.0 0.0
						CHANNELS 6 Xposition Yposition Zposition Zrotation Xrotation Yrotation 
						End Site
						{
							OFFSET 0.0 0.0 0.0
						}
					}
				}
			}
		}
		JOINT UpperLeg_R
		{
			OFFSET -2.19251 6.46944 0.0
			CHANNELS 6 Xposition Yposition Zposition Zrotation Xrotation Yrotation 
			JOINT LowerLeg_R
			{
				OFFSET -39.0811 -0.00228153 -0.0401928
				CHANNELS 6 Xposition Yposition Zposition Zrotation Xrotation Yrotation 
				JOINT Foot_R
				{
					OFFSET -40.9854 0.0 0.0
					CHANNELS 6 Xposition Yposition Zposition Zrotation Xrotation Yrotation 
					JOINT Toes_R
					{
						OFFSET -11.7543 0.0 0.0
						CHANNELS 6 Xposition Yposition Zposition Zrotation Xrotation Yrotation 
						End Site
						{
							OFFSET 0.0 0.0 0.0
						}
					}
				}
			}
		}
	}
}
MOTION
Frames:	4
Frame Time:	0.0333333
0.000000 0.000000 0.000000 0.000000 0.000000 -0.000000 -0.559506 93.209900 -1.643020 87.534700 0.305351 -0.824028 15.735700 0.000005 -0.000001 84.244600 88.316500 -83.088100 8.984550 -0.406207 -0.000000 -4.410420 -0.460184 2.296630 16.377300 -0.000001 -0.000001 3.783710 2.204990 -1.975480 6.456720 -0.000001 -0.000000 5.541640 1.815420 -0.394691 12.994200 -0.242716 4.980390 -92.547200 7.702640 -71.638900 5.348090 -0.000007 -0.000001 -73.118700 27.487000 1.786170 24.328600 0.000019 0.000005 13.979700 30.649800 -26.028100 22.291600 -0.000001 0.000005 -3.653470 5.045650 6.332860 12.994500 -0.242716 -4.980390 88.679500 4.436690 -73.406800 -5.348130 -0.000001 -0.000004 -73.468100 27.052200 2.361840 -24.328900 0.000322 -0.000009 2.279420 5.624100 -22.114100 -22.291500 -0.000108 -0.000004 -0.838814 5.263800 1.065120 -2.192480 -6.469440 -0.000000 -177.402000 -0.061199 -4.529180 39.081100 -0.000007 -0.000012 0.164167 -0.508108 17.905700 40.985400 -0.000006 -0.000013 2.472060 7.965740 -69.989500 11.754300 -0.000000 0.000003 -0.000138 0.169912 -9.685170 -2.192510 6.469440 -0.000001 -175.361000 7.932730 179.692000 -39.081100 -0.002282 -0.040193 0.009492 -0.030862 11.280400 -40.985400 0.000008 0.000006 -2.758660 1.597480 -67.297000 -11.754300 -0.000006 -0.000006 -0.009527 0.267733 -5.697080
0.000000 0.000000 0.000000 0.000000 0.000000 -0.000000 -0.673142 93.227300 -1.753870 87.540000 0.332379 -0.856577 15.735700 0.000005 -0.000001 84.939600 88.265800 -83.806800 8.984550 -0.406207 -0.000000 -4.306040 -0.424966 2.250880 16.377300 -0.000001 -0.000001 3.427070 2.101390 -1.838490 6.456720 -0.000001 -0.000000 5.337650 1.705110 -0.224654 12.994200 -0.242716 4.980390 -92.548700 7.708290 -71.640900 5.348090 -0.000007 -0.000001 -73.094100 27.440000 1.717220 24.328600 0.000019 0.000005 13.926800 30.511400 -26.031300 22.291600 -0.000001 0.000005 -3.595030 5.044160 6.365620 12.994500 -0.242716 -4.980390 88.705600 4.377750 -73.510800 -5.348130 -0.000001 -0.000004 -73.282100 25.484400 2.898440 -24.328900 0.000322 -0.000009 2.393380 5.519940 -23.494900 -22.291500 -0.000108 -0.000004 -0.682170 5.258330 1.211560 -2.192480 -6.469440 -0.000000 -177.326000 0.017823 -4.620260 39.081100 -0.000007 -0.000012 0.162203 -0.503534 17.855600 40.985400 -0.000006 -0.000013 2.364520 7.928710 -69.928500 11.754300 -0.000000 0.000003 -0.000240 0.171573 -9.617680 -2.192510 6.469440 -0.000001 -175.282000 8.025320 179.639000 -39.081100 -0.002282 -0.040193 0.008885 -0.028154 11.148000 -40.985400 0.000008 0.000006 -2.696290 1.641650 -67.147600 -11.754300 -0.000006 -0.000006 -0.009285 0.265884 -5.772670
0.000000 0.000000 0.000000 0.000000 0.000000 -0.000000 -0.792357 93.240500 -1.865270 87.553000 0.359116 -0.920224 15.735700 0.000005 -0.000001 85.829700 88.213000 -84.727200 8.984550 -0.406207 -0.000000 -4.196950 -0.374754 2.192500 16.377300 -0.000001 -0.000001 3.022450 2.023250 -1.738360 6.456720 -0.000001 -0.000000 5.056590 1.547870 0.070541 12.994200 -0.242716 4.980390 -92.545400 7.707370 -71.661200 5.348090 -0.000007 -0.000001 -73.066900 27.299000 1.598330 24.328600 0.000019 0.000005 13.961000 30.559900 -26.056600 22.291600 -0.000001 0.000005 -3.590250 5.041960 6.413740 12.994500 -0.242716 -4.980390 88.721600 4.341720 -73.576000 -5.348130 -0.000001 -0.000004 -73.057100 22.804000 3.729200 -24.328900 0.000322 -0.000009 2.453570 5.118130 -25.669000 -22.291500 -0.000108 -0.000004 -0.804798 5.258150 1.216300 -2.192480 -6.469440 -0.000000 -177.258000 0.043790 -4.745620 39.081100 -0.000007 -0.000012 0.161678 -0.503046 17.817600 40.985400 -0.000006 -0.000013 2.269690 7.938600 -69.846800 11.754300 -0.000000 0.000003 -0.000211 0.171097 -9.637010 -2.192510 6.469440 -0.000001 -175.191000 8.070660 179.544000 -39.081100 -0.002282 -0.040193 0.009131 -0.029647 11.058200 -40.985400 0.000008 0.000006 -2.572650 1.682670 -67.075900 -11.754300 -0.000006 -0.000006 -0.009576 0.268111 -5.681620
0.000000 0.000000 0.000000 0.000000 0.000000 -0.000000 -0.900455 93.263500 -1.982740 87.575200 0.391208 -1.026660 15.735700 0.000005 -0.000001 86.075000 88.169000 -85.000600 8.984550 -0.406207 -0.000000 -4.108460 -0.361768 2.137060 16.377300 -0.000001 -0.000001 2.628240 1.913260 -1.630510 6.456720 -0.000001 -0.000000 4.674220 1.418160 0.411475 12.994200 -0.242716 4.980390 -92.554300 7.711460 -71.610500 5.348090 -0.000007 -0.000001 -73.009600 27.282900 1.455710 24.328600 0.000019 0.000005 13.950700 30.474800 -26.096100 22.291600 -0.000001 0.000005 -3.586270 5.039470 6.468440 12.994500 -0.242716 -4.980390 88.726100 4.324480 -73.569000 -5.348130 -0.000001 -0.000004 -72.740600 19.086800 4.633730 -24.328900 0.000322 -0.000009 2.095970 3.886830 -28.383400 -22.291500 -0.000108 -0.000004 -0.770767 5.243100 1.615140 -2.192480 -6.469440 -0.000000 -177.201000 0.164188 -4.878410 39.081100 -0.000007 -0.000012 0.157914 -0.495256 17.685300 40.985400 -0.000006 -0.000013 2.157260 7.882070 -69.691600 11.754300 -0.000000 0.000003 -0.000138 0.169915 -9.685020 -2.192510 6.469440 -0.000001 -175.119000 8.161120 179.436000 -39.081100 -0.002282 -0.040193 0.008398 -0.026345 10.874800 -40.985400 0.000008 0.000006 -2.527430 1.710430 -66.891400 -11.754300 -0.000006 -0.000006 -0.009344 0.266335 -5.754210
